<?xml version="1.0" encoding="utf-8"?>
<!-- Generator: Adobe Illustrator 23.1.1, SVG Export Plug-In . SVG Version: 6.00 Build 0)  -->
<svg version="1.1" id="Layer_1" xmlns="http://www.w3.org/2000/svg" xmlns:xlink="http://www.w3.org/1999/xlink" x="0px" y="0px"
	 viewBox="0 0 576 576" style="enable-background:new 0 0 576 576;" xml:space="preserve">
<style type="text/css">
	.st0{fill:#D62457;}
	.st1{fill:none;stroke:#1A1114;stroke-miterlimit:10;}
</style>
<g>
	<path class="st0" d="M176.2,203.03c0,4.2,2,6.9,5,6.9c1.7,0,3.8-1.4,6.7-4.2v-14.3C183.1,195.63,176.2,194.93,176.2,203.03z"/>
	<path class="st0" d="M386.02,177.23c-4.1,0-7.8,5.3-7.1,12.4h14.2C393.02,181.93,390.32,177.23,386.02,177.23z"/>
	<path class="st0" d="M133.41,177.23c-4.1,0-7.8,5.3-7.1,12.4h14.2C140.41,181.93,137.71,177.23,133.41,177.23z"/>
	<path class="st0" d="M85,119v130h416V119H85z M154.31,193.53h-27.7c0.8,8.3,6.4,14.6,12.3,14.6c3.7,0,7.3-2.1,12.2-7.2l2.3,1.9
		c-5.6,7.9-13.7,12.7-21.4,12.7c-10.9,0-18.3-8.4-18.3-20.5c0-13.2,8.9-22.5,21.4-22.5c5.3,0,9.5,1.7,12.6,4.8
		c5.9,5.9,3.1,11.5,6.6,13.3V193.53z M195.11,215.43c-3.7,0-6.4-2.4-7-6.2c-4,3.9-6.7,6.3-12.3,6.3c-7.1,0-11.6-4.1-11.6-10.5
		c0-3.2,1.4-6.3,3.1-8c4.7-4.7,12.8-3.7,20.6-10.1v-3.7c0-3.9-2.7-6.7-6.3-6.7c-3.5,0-6,2.5-5.2,7.7l-11.2,3.9
		c-0.9-4.1-0.5-7,2.1-9.6c3.4-3.4,11.6-6,16.5-6s16.3,2.8,16.3,12.2v18.9c0,3.5,0.7,4.6,2.2,4.6c0.8,0,1.3-0.2,2.7-1.2l1.5,2.4
		C203.41,212.83,198.41,215.43,195.11,215.43z M230.3,215.53c-6.8,0-11.3-3.8-11.3-12.4v-24h-5.3v-2.6c6-2.5,12.8-9.8,14.6-15.4h2.9
		v12.5h13.1l-1.5,5.5h-11.6v24.2c0,3.7,1.7,5.3,4.6,5.3c2.4,0,4.7-1.5,7.6-5l1.4,2.8C241.8,211.83,235.8,215.53,230.3,215.53z
		 M362.61,176.83c-5,0.5-6.5,2.6-9,8.5l-12.6,29.8h-5.5l-11.2-26.1l-12,26.1H307l-13.8-32.2c-1.7-3.9-4.1-6.1-7.8-6.1v-3.2h23.9v3.2
		c-3.5,0.2-4.6,2.5-3.4,5.3l8,19.1l8-18.2c-1.7-4.5-3.4-6.2-6.3-6.2v-3.2h22.7v3.2c-4,0-5.4,1.8-3.7,6l7.6,18.4l7-17.1
		c1.8-4.5,0-7.1-5-7.3v-3.2h18.4V176.83z M406.92,193.53h-27.7c0.8,8.3,6.4,14.6,12.3,14.6c3.7,0,7.3-2.1,12.2-7.2l2.3,1.9
		c-5.6,7.9-13.7,12.7-21.4,12.7c-10.9,0-18.3-8.4-18.3-20.5c0-13.2,8.9-22.5,21.4-22.5c5.3,0,9.5,1.7,12.6,4.8
		c5.9,5.9,3.1,11.5,6.6,13.3V193.53z M438.52,214.43h-24.8v-3.2h1c4.2,0,5.6-1.9,5.6-7v-41.2c0-4.4-0.3-5.2-2.6-6l-4.3-1.6v-2.9
		l17.3-5h1.8v56.7c0,4.7,1.4,7,6,7V214.43z M468.62,214.43h-24.8v-3.2h1c4.2,0,5.6-1.9,5.6-7v-41.2c0-4.4-0.3-5.2-2.6-6l-4.3-1.6
		v-2.9l17.3-5h1.8v56.7c0,4.7,1.4,7,6,7V214.43z"/>
</g>
<rect x="84.5" y="118.5" class="st1" width="416" height="130"/>
</svg>
