<?xml version="1.0" encoding="utf-8"?>
<!-- Generator: Adobe Illustrator 23.1.1, SVG Export Plug-In . SVG Version: 6.00 Build 0)  -->
<svg version="1.1" id="Layer_1" xmlns="http://www.w3.org/2000/svg" xmlns:xlink="http://www.w3.org/1999/xlink" x="0px" y="0px"
	 viewBox="0 0 576 576" style="enable-background:new 0 0 576 576;" xml:space="preserve">
<style type="text/css">
	.st0{fill:none;stroke:#1E1014;stroke-miterlimit:10;}
	.st1{fill:#CE4E73;}
</style>
<rect x="98.5" y="25.5" class="st0" width="387" height="112"/>
<g>
	<path class="st1" d="M223.07,94.06c0,4.2,2,6.9,5,6.9c1.7,0,3.8-1.4,6.7-4.2v-14.3C229.97,86.66,223.07,85.96,223.07,94.06z"/>
	<path class="st1" d="M333.12,67.86c-5.9,0-9.3,4.4-9.3,11.9c0,8.4,3.6,22.5,13.2,22.5c5.8,0,9.1-4.5,9.1-12.4
		C346.12,77.06,340.72,67.86,333.12,67.86z"/>
	<path class="st1" d="M99,25v112h387V25H99z M187.57,106.46c-6.9,0-9.2-1.4-10.6-1.4c-0.6,0-1.2,0.4-2,1.3h-2.9l-1.1-12.7h3.2
		c1.7,5.6,6.1,8.6,10.4,8.6c2.8,0,5.2-2.1,5.2-4.6c0-6.9-18.8-9.3-18.8-21.4c0-7.6,6.3-12.7,15.7-12.7c3.8,0,7,0.6,11.2,2.1
		l0.2,10.7h-3.2c-1.8-5.5-5.1-8.5-9.4-8.5c-2.6,0-4.6,1.6-4.6,3.8c0,8.2,19.7,8.5,19.7,22.2
		C200.58,101.26,195.27,106.46,187.57,106.46z M241.98,106.46c-3.7,0-6.4-2.4-7-6.2c-4,3.9-6.7,6.3-12.3,6.3
		c-7.1,0-11.6-4.1-11.6-10.5c0-3.2,1.4-6.3,3.1-8c4.7-4.7,12.8-3.7,20.6-10.1v-3.7c0-3.9-2.7-6.7-6.3-6.7c-3.5,0-6,2.5-5.2,7.7
		l-11.2,3.9c-0.9-4.1-0.5-7,2.1-9.6c3.4-3.4,11.6-6,16.5-6s16.3,2.8,16.3,12.2v18.9c0,3.5,0.7,4.6,2.2,4.6c0.8,0,1.3-0.2,2.7-1.2
		l1.5,2.4C250.28,103.86,245.28,106.46,241.98,106.46z M306.9,67.86c-5.2,0.5-6.5,1.8-8.4,6l-14.3,32.3h-6l-14.9-32.1
		c-1.9-4.1-3.3-5.7-7.7-6.2v-3.2H281v3.2h-3.5c-2.1,0-3,1.9-1.3,5.6l8.9,19.9l7.8-17.6c2.3-5.2,1.1-7.2-5.9-7.9v-3.2h19.9V67.86z
		 M334.21,106.56c-13.8,0-23.6-8.7-23.6-20.9c0-12.6,10.8-22.1,25.1-22.1c13.7,0,23.6,8.7,23.6,20.8
		C359.32,97.06,348.52,106.56,334.21,106.56z M401.32,77.36c-3.1-1.2-6.8-2.5-8.1-2.5c-2,0-3.7,1.4-5.9,4.5v16.2
		c0,4.8,1.5,6.7,6.7,6.7h2.6v3.2h-27.8v-3.2h0.7c4.1,0,5.6-1.8,5.6-7v-16.3c0-4.5-0.6-5.5-3.6-6.7l-2.7-1.1v-2.5l16.4-6.2h2.1v11.2
		h0.2c3.7-7.2,5.3-10.1,8.7-10.1c0.7,0,1.5,0.1,2,0.3l7.9,2.9C404.92,70.96,403.32,74.56,401.32,77.36z"/>
</g>
</svg>
